# xmcd CD database file
#
# Track frame offsets:
#	150
#	17607
#	38455
#	62661
#	79906
#	99048
#	115870
#	128680
#	143905
#	158490
#	177073
#	194914
#	212171
#
# Disc length: 3074 seconds
#
# Revision: 0
# Processed by: cddbd v1.5PL3 Copyright (c) Steve Scherf et al.
# Submitted via: CDex 1.51
#
DISCID=a20c000d
DTITLE=Malia - I Remember
DYEAR=2003
DGENRE=Jazz
TTITLE0=Lead Me On
TTITLE1=Push Push
TTITLE2=Killing Me Softly
TTITLE3=O Kaleo
TTITLE4=Find It In Your Heart
TTITLE5=You're Everything To Me
TTITLE6=I Remember
TTITLE7=There Is A Way
TTITLE8=In Love
TTITLE9=I Could Be
TTITLE10=Big Love
TTITLE11=The Only Prayer
TTITLE12=Goodbye
EXTD=YEAR: 2003
EXTT0=
EXTT1=
EXTT2=
EXTT3=
EXTT4=
EXTT5=
EXTT6=
EXTT7=
EXTT8=
EXTT9=
EXTT10=
EXTT11=
EXTT12=
PLAYORDER=
